<svg width="14" height="11" viewBox="0 0 14 11" fill="none" xmlns="http://www.w3.org/2000/svg">
<path opacity="0.4" d="M13.2206 1.96175C12.9412 1.78578 12.5979 1.77021 12.3052 1.91911L11.3172 2.41793C10.9519 2.60202 10.7252 2.97427 10.7252 3.38849V7.27749C10.7252 7.6917 10.9519 8.06327 11.3172 8.24872L12.3046 8.74686C12.4386 8.8159 12.5819 8.84906 12.7252 8.84906C12.8972 8.84906 13.0679 8.80033 13.2206 8.7049C13.4999 8.5296 13.6666 8.22571 13.6666 7.89272V2.77461C13.6666 2.44162 13.4999 2.13772 13.2206 1.96175Z" fill="#00D1D1"/>
<path d="M6.93665 10.3333H3.07528C1.4606 10.3333 0.333252 9.21988 0.333252 7.62598V3.04053C0.333252 1.44594 1.4606 0.333252 3.07528 0.333252H6.93665C8.55134 0.333252 9.67868 1.44594 9.67868 3.04053V7.62598C9.67868 9.21988 8.55134 10.3333 6.93665 10.3333Z" fill="#00D1D1"/>
</svg>
