<svg width="36" height="36" viewBox="0 0 36 36" fill="none" xmlns="http://www.w3.org/2000/svg">
<circle cx="18" cy="18" r="18" fill="#374151"/>
<path d="M14 14L14 14.01M14 15C13.4477 15 13 14.5523 13 14C13 13.4477 13.4477 13 14 13C14.5523 13 15 13.4477 15 14C15 14.5523 14.5523 15 14 15Z" stroke="white" stroke-width="2" stroke-linecap="round" stroke-linejoin="round"/>
<path d="M14 22L14 22.01M14 23C13.4477 23 13 22.5523 13 22C13 21.4477 13.4477 21 14 21C14.5523 21 15 21.4477 15 22C15 22.5523 14.5523 23 14 23Z" stroke="white" stroke-width="2" stroke-linecap="round" stroke-linejoin="round"/>
<path d="M22 14L22 14.01M22 15C21.4477 15 21 14.5523 21 14C21 13.4477 21.4477 13 22 13C22.5523 13 23 13.4477 23 14C23 14.5523 22.5523 15 22 15Z" stroke="white" stroke-width="2" stroke-linecap="round" stroke-linejoin="round"/>
<path d="M22 22L22 22.01M22 23C21.4477 23 21 22.5523 21 22C21 21.4477 21.4477 21 22 21C22.5523 21 23 21.4477 23 22C23 22.5523 22.5523 23 22 23Z" stroke="white" stroke-width="2" stroke-linecap="round" stroke-linejoin="round"/>
<rect x="25" y="1" width="9" height="9" rx="4.5" fill="#DC2626"/>
</svg>
