<svg width="14" height="14" viewBox="0 0 14 14" fill="none" xmlns="http://www.w3.org/2000/svg">
<path d="M13.6665 8.80125V9.7236C13.6665 9.87666 13.6598 10.0311 13.6464 10.1841C13.4594 12.2902 11.9964 13.6663 9.88556 13.6663H4.11401C3.04521 13.6663 2.14341 13.3195 1.49544 12.6905C1.2416 12.4573 1.02784 12.1832 0.86084 11.8691C1.08128 11.6011 1.32844 11.3077 1.56892 11.0136C1.9764 10.5257 2.37053 10.0438 2.61769 9.73029C2.98509 9.27579 3.95369 8.0794 5.29638 8.64084C5.57026 8.75446 5.81074 8.91487 6.03118 9.05523C6.57226 9.41615 6.79938 9.52309 7.18015 9.3159C7.60099 9.08865 7.87487 8.64084 8.16211 8.17298C8.31575 7.92501 8.46939 7.68506 8.63639 7.4645C9.36451 6.51541 10.4868 6.26142 11.422 6.82286C11.8896 7.10358 12.2904 7.45781 12.6644 7.81807C12.7446 7.89827 12.8248 7.97246 12.8982 8.04598C12.9984 8.14624 13.3324 8.48043 13.6665 8.80125Z" fill="#00D1D1"/>
<path opacity="0.4" d="M9.89237 0.333252H4.11415C1.84962 0.333252 0.333252 1.9173 0.333252 4.27599V9.72391C0.333252 10.5453 0.520293 11.2745 0.860974 11.8694C1.08141 11.6014 1.32858 11.308 1.56906 11.0132C1.97654 10.526 2.37066 10.0441 2.61782 9.7306C2.98522 9.2761 3.95383 8.07971 5.29651 8.64115C5.57039 8.75477 5.81087 8.91518 6.03131 9.05554C6.5724 9.41646 6.79952 9.5234 7.18028 9.31554C7.60112 9.08896 7.875 8.64115 8.16224 8.17262C8.31588 7.92532 8.46953 7.68537 8.63653 7.46481C9.36465 6.51571 10.4869 6.26173 11.4221 6.82317C11.8897 7.10388 12.2905 7.45812 12.6646 7.81838C12.7447 7.89858 12.8249 7.97277 12.8984 8.04629C12.9986 8.14588 13.3326 8.48007 13.6666 8.80156V4.27599C13.6666 1.9173 12.1502 0.333252 9.89237 0.333252Z" fill="#00D1D1"/>
<path d="M6.63619 4.86413C6.63619 5.8032 5.85396 6.58519 4.91542 6.58519C3.97754 6.58519 3.19531 5.8032 3.19531 4.86413C3.19531 3.92573 3.97754 3.14307 4.91542 3.14307C5.85396 3.14307 6.63619 3.92573 6.63619 4.86413Z" fill="#00D1D1"/>
</svg>
