<svg width="16" height="16" viewBox="0 0 16 16" fill="none" xmlns="http://www.w3.org/2000/svg">
<path opacity="0.4" d="M10.3199 2H5.01325C2.71325 2 1.33325 3.37333 1.33325 5.68V10.98C1.33325 13.2933 2.71325 14.6667 5.01325 14.6667H10.3133C12.6199 14.6667 13.9933 13.2933 13.9933 10.9867V5.68C13.9999 3.37333 12.6199 2 10.3199 2Z" fill="#00D1D1"/>
<path d="M14.0132 1.98657C12.8199 0.786566 11.6532 0.759899 10.4266 1.98657L9.67324 2.73323C9.60657 2.7999 9.58657 2.89323 9.61324 2.9799C10.0799 4.61323 11.3866 5.9199 13.0199 6.38657C13.0399 6.39323 13.0732 6.39323 13.0932 6.39323C13.1599 6.39323 13.2266 6.36657 13.2732 6.3199L14.0132 5.57323C14.6199 4.96657 14.9199 4.38657 14.9199 3.79323C14.9199 3.19323 14.6199 2.5999 14.0132 1.98657Z" fill="#00D1D1"/>
<path d="M11.9068 6.9466C11.7268 6.85994 11.5535 6.77327 11.3935 6.67327C11.2601 6.59327 11.1268 6.5066 11.0001 6.41327C10.8935 6.3466 10.7735 6.2466 10.6535 6.1466C10.6401 6.13994 10.6001 6.1066 10.5468 6.05327C10.3401 5.8866 10.1201 5.65994 9.91348 5.41327C9.90015 5.39994 9.86015 5.35994 9.82682 5.29994C9.76015 5.2266 9.66015 5.09994 9.57348 4.95994C9.50015 4.8666 9.41348 4.73327 9.33348 4.59327C9.23348 4.4266 9.14682 4.25994 9.06682 4.0866C8.98015 3.89994 8.91348 3.7266 8.85348 3.55994L5.26682 7.1466C5.03348 7.37994 4.80681 7.81994 4.76015 8.1466L4.47348 10.1333C4.41348 10.5533 4.52681 10.9466 4.78681 11.2066C5.00681 11.4266 5.30682 11.5399 5.64015 11.5399C5.71348 11.5399 5.78682 11.5333 5.86015 11.5266L7.84015 11.2466C8.16682 11.1999 8.60682 10.9799 8.84015 10.7399L12.4268 7.15327C12.2601 7.09994 12.0935 7.0266 11.9068 6.9466Z" fill="#00D1D1"/>
</svg>
