<svg width="48" height="48" viewBox="0 0 48 48" fill="none" xmlns="http://www.w3.org/2000/svg">
<path fill-rule="evenodd" clip-rule="evenodd" d="M24 4C35.0457 4 44 12.9543 44 24C44 35.0457 35.0457 44 24 44C12.9543 44 4 35.0457 4 24C4 12.9543 12.9543 4 24 4Z" stroke="white" stroke-linecap="round" stroke-linejoin="round"/>
<path fill-rule="evenodd" clip-rule="evenodd" d="M30.1003 24.9337C28.6423 26.5057 24.6743 29.1657 22.6443 30.0197C22.3203 30.1557 21.4943 30.4437 21.3163 30.4477C20.9383 30.4597 20.5743 30.2477 20.3983 29.9077C20.3303 29.7757 20.1303 28.9137 20.0663 28.5297C19.8763 27.3617 19.7783 25.5477 19.7803 23.7237C19.7783 21.8097 19.8843 19.9097 20.0963 18.7537C20.1523 18.4417 20.3163 17.7237 20.3643 17.6077C20.4543 17.3917 20.6183 17.2217 20.8163 17.1157C20.9683 17.0337 21.1423 16.9897 21.3163 16.9957C21.4943 16.9997 22.2183 17.2537 22.4663 17.3517C24.4223 18.1117 28.5603 20.8677 30.0803 22.4877C30.2163 22.6337 30.5903 23.0257 30.6523 23.1057C30.7943 23.2857 30.8643 23.5037 30.8643 23.7237C30.8643 23.9277 30.8023 24.1357 30.6743 24.3097C30.6083 24.3997 30.2263 24.7997 30.1003 24.9337Z" stroke="white" stroke-linecap="round" stroke-linejoin="round"/>
</svg>
