<svg width="20" height="20" viewBox="0 0 20 20" fill="none" xmlns="http://www.w3.org/2000/svg">
<path d="M14.932 11.9333C14.7162 12.1425 14.617 12.445 14.6662 12.7416L15.407 16.8416C15.4695 17.1891 15.3228 17.5408 15.032 17.7416C14.747 17.95 14.3678 17.975 14.057 17.8083L10.3662 15.8833C10.2378 15.815 10.0953 15.7783 9.94949 15.7741H9.72366C9.64532 15.7858 9.56866 15.8108 9.49866 15.8491L5.80699 17.7833C5.62449 17.875 5.41782 17.9075 5.21532 17.875C4.72199 17.7816 4.39282 17.3116 4.47366 16.8158L5.21532 12.7158C5.26449 12.4166 5.16532 12.1125 4.94949 11.9L1.94032 8.98331C1.68866 8.73915 1.60116 8.37248 1.71616 8.04165C1.82782 7.71165 2.11282 7.47081 2.45699 7.41665L6.59866 6.81581C6.91366 6.78331 7.19032 6.59165 7.33199 6.30831L9.15699 2.56665C9.20032 2.48331 9.25616 2.40665 9.32366 2.34165L9.39866 2.28331C9.43782 2.23998 9.48282 2.20415 9.53282 2.17498L9.62366 2.14165L9.76532 2.08331H10.1162C10.4295 2.11581 10.7053 2.30331 10.8495 2.58331L12.6987 6.30831C12.832 6.58081 13.0912 6.76998 13.3903 6.81581L17.532 7.41665C17.882 7.46665 18.1745 7.70831 18.2903 8.04165C18.3995 8.37581 18.3053 8.74248 18.0487 8.98331L14.932 11.9333Z" fill="#9CA3AF"/>
</svg>
