<svg width="21" height="21" viewBox="0 0 21 21" fill="none" xmlns="http://www.w3.org/2000/svg">
<path d="M0.405762 15.3099C0.405762 15.7334 0.545961 16.0853 0.826359 16.3657C1.10676 16.6461 1.4358 16.7863 1.81348 16.7863C2.19118 16.7863 2.51736 16.6432 2.79202 16.3571C3.0667 16.071 3.20404 15.7448 3.20404 15.3786V11.3442L2.91219 4.59744L5.16112 7.18974L17.9851 20.0138C18.2598 20.2884 18.5803 20.4258 18.9465 20.4258C19.3357 20.4258 19.6762 20.277 19.968 19.9794C20.2598 19.6819 20.4058 19.3442 20.4058 18.9666C20.4058 18.6003 20.2627 18.2799 19.9766 18.0052L7.16971 5.18115L4.59461 2.96653L11.3929 3.20688H15.3585C15.7248 3.20688 16.0481 3.06955 16.3285 2.79489C16.6089 2.5202 16.7491 2.19974 16.7491 1.8335C16.7491 1.45583 16.6146 1.12679 16.3457 0.846386C16.0767 0.565983 15.7248 0.425781 15.2899 0.425781H1.89934C1.44152 0.425781 1.07814 0.565983 0.809202 0.846386C0.540242 1.12679 0.405762 1.48444 0.405762 1.91933V15.3099Z" fill="#9E9E9E"/>
</svg>
