<svg width="20" height="20" viewBox="0 0 20 20" fill="none" xmlns="http://www.w3.org/2000/svg">
<path opacity="0.4" d="M11.4588 8.0858V6.40259C11.1284 6.40259 10.8544 6.13641 10.8544 5.81543V3.81124C10.8544 3.54428 10.6368 3.33368 10.3628 3.33368H4.826C3.08519 3.33368 1.66675 4.71078 1.66675 6.40259V8.42948C1.66675 8.58684 1.73122 8.73559 1.84405 8.8452C1.95688 8.95402 2.11001 9.01665 2.2712 9.01665C2.8837 9.01665 3.35115 9.43941 3.35115 9.99526C3.35115 10.5754 2.87565 11.0373 2.27926 11.0443C1.94882 11.0443 1.66675 11.2714 1.66675 11.6002V13.6051C1.66675 15.2962 3.08519 16.6662 4.81794 16.6662H10.3628C10.6368 16.6662 10.8544 16.4541 10.8544 16.1887V14.4969C10.8544 14.1688 11.1284 13.9097 11.4588 13.9097V12.3917C11.1284 12.3917 10.8544 12.1247 10.8544 11.8045V8.67296C10.8544 8.35198 11.1284 8.0858 11.4588 8.0858" fill="#9CA3AF"/>
<path d="M16.6489 9.99567C16.6489 10.575 17.1325 11.0369 17.7208 11.0447C18.0513 11.0447 18.3333 11.2718 18.3333 11.5928V13.6048C18.3333 15.2966 16.923 16.6666 15.1821 16.6666H12.5548C12.2889 16.6666 12.0632 16.4545 12.0632 16.1883V14.4973C12.0632 14.1685 11.7972 13.9101 11.4587 13.9101V12.3921C11.7972 12.3921 12.0632 12.1251 12.0632 11.8049V8.67338C12.0632 8.35161 11.7972 8.08621 11.4587 8.08621V6.40223C11.7972 6.40223 12.0632 6.13605 12.0632 5.81506V3.81166C12.0632 3.54469 12.2889 3.33331 12.5548 3.33331H15.1821C16.923 3.33331 18.3333 4.70336 18.3333 6.3944V8.36727C18.3333 8.52385 18.2689 8.67338 18.156 8.7822C18.0432 8.8918 17.8901 8.95443 17.7289 8.95443C17.1325 8.95443 16.6489 9.42495 16.6489 9.99567" fill="#9CA3AF"/>
</svg>
