<svg width="38" height="38" viewBox="0 0 38 38" fill="none" xmlns="http://www.w3.org/2000/svg">
<path fill-rule="evenodd" clip-rule="evenodd" d="M9.84441 33.6406C10.6884 33.6406 11.3744 34.3266 11.3744 35.1706C11.3744 36.0146 10.6884 36.6986 9.84441 36.6986C9.00041 36.6986 8.31641 36.0146 8.31641 35.1706C8.31641 34.3266 9.00041 33.6406 9.84441 33.6406Z" stroke="white" stroke-linecap="round" stroke-linejoin="round"/>
<path fill-rule="evenodd" clip-rule="evenodd" d="M32.3503 33.6406C33.1943 33.6406 33.8803 34.3266 33.8803 35.1706C33.8803 36.0146 33.1943 36.6986 32.3503 36.6986C31.5063 36.6986 30.8203 36.0146 30.8203 35.1706C30.8203 34.3266 31.5063 33.6406 32.3503 33.6406Z" stroke="white" stroke-linecap="round" stroke-linejoin="round"/>
<path d="M0.5 0.5L4.66 1.22L6.586 24.166C6.742 26.036 8.304 27.472 10.18 27.472H32.004C33.796 27.472 35.316 26.156 35.574 24.38L37.472 11.264C37.706 9.646 36.452 8.198 34.818 8.198H5.328" stroke="white" stroke-linecap="round" stroke-linejoin="round"/>
<path d="M23.251 15.5898H28.797" stroke="white" stroke-linecap="round" stroke-linejoin="round"/>
</svg>
