<svg width="20" height="20" viewBox="0 0 20 20" fill="none" xmlns="http://www.w3.org/2000/svg">
<path opacity="0.3" d="M10.8137 2.59466L12.6691 6.32322C12.8058 6.59336 13.0667 6.78095 13.3675 6.82264L17.5351 7.42962C17.7785 7.4638 17.9994 7.5922 18.1486 7.78813C18.2961 7.98156 18.3595 8.22669 18.3236 8.46764C18.2944 8.66775 18.2003 8.85284 18.0561 8.99458L15.0362 11.9219C14.8154 12.1262 14.7153 12.4288 14.7687 12.7248L15.5122 16.8402C15.5914 17.3372 15.2621 17.8057 14.7687 17.8999C14.5653 17.9325 14.3569 17.8983 14.1736 17.8049L10.4561 15.8681C10.1802 15.7288 9.85429 15.7288 9.5784 15.8681L5.86094 17.8049C5.40417 18.0475 4.83822 17.8824 4.584 17.4322C4.48981 17.2529 4.45647 17.0487 4.48731 16.8494L5.2308 12.7331C5.28415 12.438 5.18329 12.1337 4.96324 11.9294L1.94343 9.00375C1.58418 8.65691 1.57335 8.08578 1.91926 7.72643C1.92676 7.71893 1.93509 7.71059 1.94343 7.70226C2.08679 7.55635 2.27517 7.4638 2.47854 7.43962L6.6461 6.83181C6.94617 6.78929 7.20706 6.60336 7.34459 6.33156L9.13331 2.59466C9.29251 2.2745 9.62258 2.07523 9.98099 2.08356H10.0927C10.4036 2.12108 10.6745 2.31368 10.8137 2.59466" fill="#9CA3AF"/>
<path d="M9.99342 15.7642C9.83201 15.7692 9.67475 15.8126 9.5333 15.8902L5.83402 17.8226C5.38138 18.0386 4.83972 17.871 4.58594 17.4381C4.49192 17.2613 4.45781 17.0586 4.48943 16.8601L5.22828 12.7526C5.27821 12.454 5.17836 12.1504 4.9612 11.9403L1.94003 9.01538C1.58142 8.66426 1.57476 8.08795 1.92588 7.72849C1.93088 7.72348 1.93504 7.71931 1.94003 7.71514C2.08314 7.57336 2.26786 7.47995 2.46672 7.45076L6.63777 6.83692C6.93981 6.79856 7.2019 6.61007 7.33503 6.33651L9.14806 2.55258C9.3203 2.24733 9.65062 2.06551 10.0001 2.08469C9.99342 2.3324 9.99342 15.5958 9.99342 15.7642" fill="#9CA3AF"/>
</svg>
