<svg width="48" height="48" viewBox="0 0 48 48" fill="none" xmlns="http://www.w3.org/2000/svg">
<path d="M12.5603 43.9995C16.0066 43.9995 18.8003 41.2058 18.8003 37.7595C18.8003 34.3133 16.0066 31.5195 12.5603 31.5195C9.11406 31.5195 6.32031 34.3133 6.32031 37.7595C6.32031 41.2058 9.11406 43.9995 12.5603 43.9995Z" stroke="white" stroke-linecap="round" stroke-linejoin="round"/>
<path d="M41.6798 33.5997V9.1997C41.6798 3.9997 38.4198 3.2797 35.1198 4.1797L22.6398 7.5797C20.3598 8.1997 18.7998 9.9997 18.7998 12.5997V16.9397V19.8597V37.7397" stroke="white" stroke-linecap="round" stroke-linejoin="round"/>
<path d="M35.4402 39.8404C38.8864 39.8404 41.6802 37.0466 41.6802 33.6003C41.6802 30.1541 38.8864 27.3604 35.4402 27.3604C31.9939 27.3604 29.2002 30.1541 29.2002 33.6003C29.2002 37.0466 31.9939 39.8404 35.4402 39.8404Z" stroke="white" stroke-linecap="round" stroke-linejoin="round"/>
<path d="M18.8 19.04L41.68 12.8" stroke="white" stroke-linecap="round" stroke-linejoin="round"/>
</svg>
