<svg width="25" height="24" viewBox="0 0 25 24" fill="none" xmlns="http://www.w3.org/2000/svg">
<path opacity="0.3" d="M13.4763 3.11361L15.7028 7.58789C15.8668 7.91205 16.1799 8.13717 16.541 8.18719L21.542 8.91556C21.8341 8.95658 22.0992 9.11066 22.2782 9.34578C22.4552 9.5779 22.5312 9.87205 22.4882 10.1612C22.4532 10.4013 22.3402 10.6234 22.1672 10.7935L18.5434 14.3063C18.2783 14.5514 18.1583 14.9146 18.2223 15.2698L19.1145 20.2083C19.2095 20.8046 18.8144 21.3669 18.2223 21.48C17.9783 21.519 17.7282 21.478 17.5082 21.3659L13.0472 19.0417C12.7161 18.8746 12.3251 18.8746 11.994 19.0417L7.53303 21.3659C6.98491 21.657 6.30576 21.4589 6.0007 20.9187C5.88767 20.7036 5.84766 20.4584 5.88467 20.2193L6.77686 15.2798C6.84088 14.9256 6.71985 14.5604 6.45579 14.3153L2.83202 10.8045C2.40092 10.3883 2.38792 9.70296 2.80301 9.27175C2.81201 9.26274 2.82201 9.25274 2.83202 9.24273C3.00405 9.06764 3.2301 8.95658 3.47415 8.92757L8.47523 8.1982C8.83531 8.14717 9.14837 7.92406 9.31341 7.59789L11.4599 3.11361C11.6509 2.72942 12.047 2.4903 12.4771 2.5003H12.6111C12.9842 2.54533 13.3093 2.77644 13.4763 3.11361Z" fill="#00D1D1"/>
<path d="M12.492 18.9171C12.2983 18.9231 12.1096 18.9752 11.9399 19.0682L7.50072 21.3871C6.95756 21.6464 6.30756 21.4452 6.00303 20.9258C5.89021 20.7136 5.84927 20.4704 5.88721 20.2322L6.77384 15.3032C6.83375 14.9449 6.71394 14.5806 6.45334 14.3284L2.82794 10.8185C2.3976 10.3971 2.38961 9.70556 2.81096 9.27421C2.81695 9.26821 2.82195 9.2632 2.82794 9.2582C2.99967 9.08806 3.22133 8.97597 3.45996 8.94094L8.46523 8.20433C8.82767 8.1583 9.14219 7.93211 9.30194 7.60384L11.4776 3.06312C11.6843 2.69682 12.0806 2.47864 12.5 2.50166C12.492 2.7989 12.492 18.715 12.492 18.9171Z" fill="#00D1D1"/>
</svg>
