<svg width="36" height="36" viewBox="0 0 36 36" fill="none" xmlns="http://www.w3.org/2000/svg">
<circle cx="18" cy="18" r="18" fill="#374151"/>
<path fill-rule="evenodd" clip-rule="evenodd" d="M13.6959 19.3909C13.0512 19.3909 12.5273 18.8671 12.5273 18.2223C12.5273 17.5795 13.0512 17.0557 13.6959 17.0557C14.3407 17.0557 14.8645 17.5795 14.8645 18.2223C14.8645 18.8671 14.3407 19.3909 13.6959 19.3909ZM18.2389 19.3909C17.5941 19.3909 17.0703 18.8671 17.0703 18.2223C17.0703 17.5795 17.5941 17.0557 18.2389 17.0557C18.8836 17.0557 19.4075 17.5795 19.4075 18.2223C19.4075 18.8671 18.8836 19.3909 18.2389 19.3909ZM21.6133 18.2223C21.6133 18.8671 22.1371 19.3909 22.7819 19.3909C23.4266 19.3909 23.9504 18.8671 23.9504 18.2223C23.9504 17.5795 23.4266 17.0557 22.7819 17.0557C22.1371 17.0557 21.6133 17.5795 21.6133 18.2223Z" fill="white"/>
<path fill-rule="evenodd" clip-rule="evenodd" d="M18.02 8C12.21 8 8 12.7461 8 18.015C8 19.6975 8.49 21.4291 9.35 23.0115C9.51 23.2729 9.53 23.6024 9.42 23.9139L8.75 26.1572C8.6 26.698 9.06 27.0976 9.57 26.9374L11.59 26.3375C12.14 26.1572 12.57 26.3866 13.08 26.698C14.54 27.5583 16.36 28 18 28C22.96 28 28 24.1642 28 17.985C28 12.656 23.7 8 18.02 8Z" stroke="white" stroke-linecap="round" stroke-linejoin="round"/>
</svg>
