<svg width="14" height="14" viewBox="0 0 14 14" fill="none" xmlns="http://www.w3.org/2000/svg">
<path fill-rule="evenodd" clip-rule="evenodd" d="M13.1399 4.26665V9.69998C13.1399 11.7133 11.8799 13.1333 9.86659 13.1333H4.09992C2.08659 13.1333 0.833252 11.7133 0.833252 9.69998V4.26665C0.833252 2.25332 2.09325 0.833984 4.09992 0.833984H9.86659C11.8799 0.833984 13.1399 2.25332 13.1399 4.26665Z" stroke="#D1D5DB" stroke-linecap="round" stroke-linejoin="round"/>
<path d="M2.52075 9.95486L3.54009 8.87953C3.90742 8.49153 4.52409 8.48953 4.89475 8.8742L5.48475 9.4762C5.88275 9.8822 6.54475 9.85286 6.90542 9.41353L8.39142 7.6062C8.81809 7.08686 9.60075 7.05486 10.0681 7.53686L11.4521 8.96486" stroke="#D1D5DB" stroke-linecap="round" stroke-linejoin="round"/>
<path fill-rule="evenodd" clip-rule="evenodd" d="M5.8756 5.0895C5.8756 5.73483 5.3516 6.25883 4.70626 6.25883C4.06093 6.25883 3.5376 5.73483 3.5376 5.0895C3.5376 4.44417 4.06093 3.92017 4.70626 3.92017C5.3516 3.92017 5.8756 4.44417 5.8756 5.0895Z" stroke="#D1D5DB" stroke-linecap="round" stroke-linejoin="round"/>
</svg>
