<svg width="20" height="20" viewBox="0 0 20 20" fill="none" xmlns="http://www.w3.org/2000/svg">
<path opacity="0.4" d="M15.8915 16.5167C15.7331 16.5167 15.5748 16.4584 15.4498 16.3334C15.2081 16.0917 15.2081 15.6917 15.4498 15.4501C18.4581 12.4417 18.4581 7.55009 15.4498 4.55009C15.2081 4.30842 15.2081 3.90842 15.4498 3.66675C15.6915 3.42509 16.0915 3.42509 16.3331 3.66675C19.8248 7.15842 19.8248 12.8417 16.3331 16.3334C16.2081 16.4584 16.0498 16.5167 15.8915 16.5167Z" fill="#D1D5DB"/>
<path opacity="0.4" d="M4.10827 16.5167C3.94993 16.5167 3.7916 16.4584 3.6666 16.3334C0.174935 12.8417 0.174935 7.15842 3.6666 3.66675C3.90827 3.42509 4.30827 3.42509 4.54993 3.66675C4.7916 3.90842 4.7916 4.30842 4.54993 4.55009C1.5416 7.55842 1.5416 12.45 4.54993 15.4501C4.7916 15.6917 4.7916 16.0917 4.54993 16.3334C4.42493 16.4584 4.2666 16.5167 4.10827 16.5167Z" fill="#D1D5DB"/>
<path opacity="0.4" d="M9.99997 18.925C8.9583 18.9167 7.96664 18.75 7.04164 18.425C6.71664 18.3083 6.54163 17.95 6.65829 17.625C6.77496 17.3 7.12498 17.125 7.45831 17.2416C8.25831 17.5166 9.10831 17.6666 10.0083 17.6666C10.9 17.6666 11.7583 17.5166 12.55 17.2416C12.875 17.1333 13.2333 17.3 13.35 17.625C13.4666 17.95 13.2916 18.3083 12.9666 18.425C12.0333 18.75 11.0416 18.925 9.99997 18.925Z" fill="#D1D5DB"/>
<path opacity="0.4" d="M12.75 2.78336C12.6833 2.78336 12.6083 2.77499 12.5416 2.74999C11.7416 2.47499 10.8833 2.32498 9.99164 2.32498C9.09998 2.32498 8.24999 2.47499 7.44999 2.74999C7.12499 2.85832 6.76666 2.69169 6.65 2.36669C6.53333 2.04169 6.70832 1.68334 7.03332 1.56667C7.95832 1.24167 8.95831 1.07498 9.99164 1.07498C11.025 1.07498 12.025 1.24167 12.95 1.56667C13.275 1.68334 13.45 2.04169 13.3333 2.36669C13.25 2.62502 13.0083 2.78336 12.75 2.78336Z" fill="#D1D5DB"/>
<path d="M7.28369 10.0001V8.60847C7.28369 6.87514 8.50871 6.16679 10.0087 7.03346L11.217 7.73348L12.4254 8.43345C13.9254 9.30012 13.9254 10.7168 12.4254 11.5835L11.217 12.2835L10.0087 12.9835C8.50871 13.8501 7.28369 13.1418 7.28369 11.4085V10.0001Z" fill="#D1D5DB"/>
</svg>
