<svg width="21" height="20" viewBox="0 0 21 20" fill="none" xmlns="http://www.w3.org/2000/svg">
<path fill-rule="evenodd" clip-rule="evenodd" d="M10.7141 1.44083L13.0301 6.09983C13.1461 6.33483 13.3701 6.49883 13.6301 6.53683L18.8151 7.28583C19.0251 7.31383 19.2141 7.42383 19.3431 7.59183C19.5851 7.90683 19.5481 8.35283 19.2581 8.62383L15.5001 12.2578C15.3091 12.4378 15.2241 12.7018 15.2741 12.9588L16.1741 18.0868C16.2371 18.5118 15.9471 18.9098 15.5221 18.9788C15.3461 19.0058 15.1661 18.9778 15.0061 18.8988L10.3881 16.4778C10.1561 16.3518 9.87813 16.3518 9.64613 16.4778L4.99413 18.9118C4.60513 19.1098 4.12913 18.9628 3.91713 18.5818C3.83613 18.4278 3.80813 18.2528 3.83613 18.0818L4.73613 12.9538C4.78113 12.6978 4.69613 12.4348 4.51013 12.2538L0.732129 8.62083C0.424129 8.31483 0.422129 7.81683 0.729129 7.50883C0.730129 7.50783 0.731129 7.50583 0.732129 7.50483C0.859129 7.38983 1.01513 7.31283 1.18413 7.28283L6.37013 6.53383C6.62913 6.49283 6.85213 6.33083 6.97013 6.09583L9.28413 1.44083C9.37713 1.25183 9.54213 1.10683 9.74213 1.04083C9.94313 0.97383 10.1631 0.98983 10.3521 1.08483C10.5071 1.16183 10.6341 1.28683 10.7141 1.44083Z" stroke="white" stroke-linecap="round" stroke-linejoin="round"/>
</svg>
