<svg width="20" height="20" viewBox="0 0 20 20" fill="none" xmlns="http://www.w3.org/2000/svg">
<path fill-rule="evenodd" clip-rule="evenodd" d="M12.0523 6.27253C12.0523 8.59771 10.2123 10.4616 7.91678 10.4616C5.6213 10.4616 3.78125 8.59771 3.78125 6.27253C3.78125 3.94735 5.6213 2.0835 7.91678 2.0835C10.2123 2.0835 12.0523 3.94735 12.0523 6.27253ZM1.66797 15.2054C1.66797 13.0517 4.54649 12.5127 7.91797 12.5127C11.307 12.5127 14.168 13.0703 14.168 15.224C14.168 17.3777 11.2886 17.9167 7.91797 17.9167C4.52897 17.9167 1.66797 17.3582 1.66797 15.2054Z" fill="#00D1D1"/>
<path fill-rule="evenodd" clip-rule="evenodd" d="M17.9451 7.05806C18.1891 7.30214 18.1891 7.69786 17.9451 7.94194L15.4117 10.4753C15.1677 10.7194 14.7719 10.7194 14.5278 10.4753L13.2612 9.20861C13.0171 8.96453 13.0171 8.5688 13.2612 8.32472C13.5053 8.08065 13.901 8.08065 14.1451 8.32472L14.9698 9.14945L17.0612 7.05806C17.3053 6.81398 17.701 6.81398 17.9451 7.05806Z" fill="#00D1D1"/>
</svg>
