<svg width="24" height="24" viewBox="0 0 24 24" fill="none" xmlns="http://www.w3.org/2000/svg">
<path fill-rule="evenodd" clip-rule="evenodd" d="M13.9673 15.2065C10.1233 15.2065 6.84033 15.7875 6.84033 18.1155C6.84033 20.4425 10.1023 21.0455 13.9673 21.0455C17.8113 21.0455 21.0943 20.4635 21.0943 18.1365C21.0943 15.8095 17.8323 15.2065 13.9673 15.2065Z" stroke="#D1D5DB" stroke-linecap="round" stroke-linejoin="round"/>
<path fill-rule="evenodd" clip-rule="evenodd" d="M13.9674 11.886C16.5034 11.886 18.5354 9.853 18.5354 7.318C18.5354 4.782 16.5034 2.75 13.9674 2.75C11.4324 2.75 9.39941 4.782 9.39941 7.318C9.39941 9.853 11.4324 11.886 13.9674 11.886Z" stroke="#D1D5DB" stroke-linecap="round" stroke-linejoin="round"/>
<path d="M4.79443 8.66943V12.6794" stroke="#D1D5DB" stroke-linecap="round" stroke-linejoin="round"/>
<path d="M6.84049 10.6743H2.75049" stroke="#D1D5DB" stroke-linecap="round" stroke-linejoin="round"/>
</svg>
