<svg width="20" height="20" viewBox="0 0 20 20" fill="none" xmlns="http://www.w3.org/2000/svg">
<path fill-rule="evenodd" clip-rule="evenodd" d="M8.23213 12.6719C5.0288 12.6719 2.29297 13.156 2.29297 15.096C2.29297 17.0352 5.0113 17.5377 8.23213 17.5377C11.4355 17.5377 14.1713 17.0527 14.1713 15.1135C14.1713 13.1744 11.453 12.6719 8.23213 12.6719Z" stroke="#E5E7EB" stroke-linecap="round" stroke-linejoin="round"/>
<path fill-rule="evenodd" clip-rule="evenodd" d="M8.23245 9.90484C10.3458 9.90484 12.0391 8.21067 12.0391 6.09817C12.0391 3.98484 10.3458 2.2915 8.23245 2.2915C6.11995 2.2915 4.42578 3.98484 4.42578 6.09817C4.42578 8.21067 6.11995 9.90484 8.23245 9.90484Z" stroke="#E5E7EB" stroke-linecap="round" stroke-linejoin="round"/>
<path d="M16.0026 7.22412V10.5658" stroke="#E5E7EB" stroke-linecap="round" stroke-linejoin="round"/>
<path d="M17.7091 8.89469H14.3008" stroke="#E5E7EB" stroke-linecap="round" stroke-linejoin="round"/>
</svg>
