<svg width="20" height="16" viewBox="0 0 20 16" fill="none" xmlns="http://www.w3.org/2000/svg">
<path opacity="0.4" fill-rule="evenodd" clip-rule="evenodd" d="M15.7366 2.04606C17.4439 3.36388 18.8976 5.29455 19.9415 7.70909C20.0195 7.89236 20.0195 8.10667 19.9415 8.28121C17.8537 13.1103 14.1366 16 10 16H9.99024C5.86341 16 2.14634 13.1103 0.0585366 8.28121C-0.0195122 8.10667 -0.0195122 7.89236 0.0585366 7.70909C2.14634 2.87903 5.86341 0 9.99024 0H10C12.0683 0 14.0293 0.717576 15.7366 2.04606ZM6.09766 7.99988C6.09766 10.1332 7.844 11.869 10.0001 11.869C12.1464 11.869 13.8928 10.1332 13.8928 7.99988C13.8928 5.85685 12.1464 4.12109 10.0001 4.12109C7.844 4.12109 6.09766 5.85685 6.09766 7.99988Z" fill="#D1D5DB"/>
</svg>
