<svg width="20" height="20" viewBox="0 0 20 20" fill="none" xmlns="http://www.w3.org/2000/svg">
<path d="M9.26476 14.1555H3.23633" stroke="white" stroke-linecap="round" stroke-linejoin="round"/>
<path fill-rule="evenodd" clip-rule="evenodd" d="M16.7648 14.1556C16.7648 15.4811 15.6903 16.5556 14.3648 16.5556C13.0394 16.5556 11.9648 15.4811 11.9648 14.1556C11.9648 12.8291 13.0394 11.7556 14.3648 11.7556C15.6903 11.7556 16.7648 12.8291 16.7648 14.1556Z" stroke="white" stroke-linecap="round" stroke-linejoin="round"/>
<path d="M10.7363 6.05194H16.7657" stroke="white" stroke-linecap="round" stroke-linejoin="round"/>
<path fill-rule="evenodd" clip-rule="evenodd" d="M3.23633 6.05186C3.23633 7.37833 4.31084 8.45186 5.63633 8.45186C6.96182 8.45186 8.03633 7.37833 8.03633 6.05186C8.03633 4.72637 6.96182 3.65186 5.63633 3.65186C4.31084 3.65186 3.23633 4.72637 3.23633 6.05186Z" stroke="white" stroke-linecap="round" stroke-linejoin="round"/>
</svg>
